<?xml version="1.0" encoding="UTF-8" standalone="no"?>
<!-- Created with Inkscape (http://www.inkscape.org/) -->

<svg
   xmlns:dc="http://purl.org/dc/elements/1.1/"
   xmlns:cc="http://creativecommons.org/ns#"
   xmlns:rdf="http://www.w3.org/1999/02/22-rdf-syntax-ns#"
   xmlns:svg="http://www.w3.org/2000/svg"
   xmlns="http://www.w3.org/2000/svg"
   xmlns:sodipodi="http://sodipodi.sourceforge.net/DTD/sodipodi-0.dtd"
   xmlns:inkscape="http://www.inkscape.org/namespaces/inkscape"
   width="260.36871mm"
   height="28.71796mm"
   viewBox="0 0 260.36871 28.71796"
   version="1.1"
   id="svg8"
   inkscape:version="0.92.3 (2405546, 2018-03-11)"
   sodipodi:docname="logo_phising.svg">
  <defs
     id="defs2" />
  <sodipodi:namedview
     id="base"
     pagecolor="#ffffff"
     bordercolor="#666666"
     borderopacity="1.0"
     inkscape:pageopacity="0.0"
     inkscape:pageshadow="2"
     inkscape:zoom="0.7"
     inkscape:cx="506.10862"
     inkscape:cy="-112.58566"
     inkscape:document-units="mm"
     inkscape:current-layer="layer1"
     showgrid="false"
     showguides="true"
     inkscape:guide-bbox="true"
     inkscape:window-width="1920"
     inkscape:window-height="980"
     inkscape:window-x="0"
     inkscape:window-y="27"
     inkscape:window-maximized="1">
    <sodipodi:guide
       position="-92.221218,152.46485"
       orientation="1,0"
       id="guide954"
       inkscape:locked="false" />
  </sodipodi:namedview>
  <metadata
     id="metadata5">
    <rdf:RDF>
      <cc:Work
         rdf:about="">
        <dc:format>image/svg+xml</dc:format>
        <dc:type
           rdf:resource="http://purl.org/dc/dcmitype/StillImage" />
        <dc:title></dc:title>
      </cc:Work>
    </rdf:RDF>
  </metadata>
  <g
     inkscape:label="Layer 1"
     inkscape:groupmode="layer"
     id="layer1"
     transform="translate(240.7966,-259.85063)">
    <g
       id="g839"
       transform="matrix(0.26458333,0,0,0.26458333,-396.43496,68.797368)" />
    <g
       id="g841"
       transform="matrix(0.26458333,0,0,0.26458333,-396.43496,68.797368)" />
    <g
       id="g843"
       transform="matrix(0.26458333,0,0,0.26458333,-396.43496,68.797368)" />
    <g
       id="g845"
       transform="matrix(0.26458333,0,0,0.26458333,-396.43496,68.797368)" />
    <g
       id="g847"
       transform="matrix(0.26458333,0,0,0.26458333,-396.43496,68.797368)" />
    <g
       id="g849"
       transform="matrix(0.26458333,0,0,0.26458333,-396.43496,68.797368)" />
    <g
       id="g851"
       transform="matrix(0.26458333,0,0,0.26458333,-396.43496,68.797368)" />
    <g
       id="g853"
       transform="matrix(0.26458333,0,0,0.26458333,-396.43496,68.797368)" />
    <g
       id="g855"
       transform="matrix(0.26458333,0,0,0.26458333,-396.43496,68.797368)" />
    <g
       id="g857"
       transform="matrix(0.26458333,0,0,0.26458333,-396.43496,68.797368)" />
    <g
       id="g859"
       transform="matrix(0.26458333,0,0,0.26458333,-396.43496,68.797368)" />
    <g
       id="g861"
       transform="matrix(0.26458333,0,0,0.26458333,-396.43496,68.797368)" />
    <g
       id="g863"
       transform="matrix(0.26458333,0,0,0.26458333,-396.43496,68.797368)" />
    <g
       id="g865"
       transform="matrix(0.26458333,0,0,0.26458333,-396.43496,68.797368)" />
    <g
       id="g867"
       transform="matrix(0.26458333,0,0,0.26458333,-396.43496,68.797368)" />
    <g
       id="g1140">
      <path
         d="m -201.41111,286.17045 h 5.98899 v -5.85707 c 0.92341,1.02895 2.13704,1.97874 4.32684,1.97874 3.40343,0 6.14729,-3.03407 6.14729,-7.59836 v -0.0528 c 0,-4.40599 -2.71747,-7.44006 -6.20005,-7.44006 -2.18981,0 -3.2979,1.05533 -4.27408,2.11066 v -1.76768 h -5.98899 z m 8.25794,-8.81199 c -1.37192,0 -2.40087,-1.16086 -2.40087,-2.58555 v -0.0528 c 0,-1.45107 1.02895,-2.58555 2.40087,-2.58555 1.37193,0 2.40087,1.13448 2.40087,2.58555 v 0.0528 c 0,1.45108 -1.02894,2.58555 -2.40087,2.58555 z"
         style="font-style:normal;font-variant:normal;font-weight:normal;font-stretch:normal;font-size:medium;line-height:1;font-family:Gotham;-inkscape-font-specification:Gotham;letter-spacing:-0.00264583px;word-spacing:-0.00264583px;fill:#ffffff;fill-opacity:1;stroke:none;stroke-width:0.65957987"
         id="path964"
         inkscape:connector-curvature="0" />
      <path
         d="m -183.58448,281.94914 h 5.98898 v -7.57198 c 0,-1.24001 0.81788,-1.95235 1.71491,-1.95235 0.89703,0 1.63576,0.71234 1.63576,1.95235 v 7.57198 h 5.98898 v -9.49795 c 0,-3.24513 -1.89959,-5.25026 -4.93365,-5.25026 -2.03151,0 -3.48259,1.08171 -4.406,2.26896 v -6.78048 h -5.98898 z"
         style="font-style:normal;font-variant:normal;font-weight:normal;font-stretch:normal;font-size:medium;line-height:1;font-family:Gotham;-inkscape-font-specification:Gotham;letter-spacing:-0.00264583px;word-spacing:-0.00264583px;fill:#ffffff;fill-opacity:1;stroke:none;stroke-width:0.65957987"
         id="path966"
         inkscape:connector-curvature="0" />
      <path
         d="m -166.6351,266.51497 h 6.20005 v -3.82556 h -6.20005 z m 0.10553,15.43417 h 5.98899 v -14.40523 h -5.98899 z"
         style="font-style:normal;font-variant:normal;font-weight:normal;font-stretch:normal;font-size:medium;line-height:1;font-family:Gotham;-inkscape-font-specification:Gotham;letter-spacing:-0.00264583px;word-spacing:-0.00264583px;fill:#ffffff;fill-opacity:1;stroke:none;stroke-width:0.65957987"
         id="path968"
         inkscape:connector-curvature="0" />
      <path
         d="m -152.34259,282.29212 c 3.90471,0 6.25282,-1.82044 6.25282,-4.96004 v -0.0528 c 0,-2.95491 -2.18981,-3.95748 -5.83069,-4.8545 -1.45108,-0.36937 -1.76767,-0.55405 -1.76767,-0.84427 v -0.0528 c 0,-0.29022 0.26383,-0.44852 0.84426,-0.44852 1.21363,0 3.06045,0.50128 4.59067,1.34555 l 1.89959,-3.56174 c -1.74129,-1.05532 -4.08939,-1.66214 -6.46388,-1.66214 -3.74641,0 -6.2792,1.76768 -6.2792,4.93366 v 0.0528 c 0,2.9813 2.24257,3.95748 5.88345,4.8545 1.45108,0.36937 1.71491,0.55405 1.71491,0.84427 v 0.0528 c 0,0.34298 -0.29021,0.4749 -0.87064,0.4749 -1.63576,0 -3.58812,-0.52766 -5.32941,-1.60937 l -2.03151,3.40343 c 2.05789,1.37192 4.59068,2.08427 7.3873,2.08427 z"
         style="font-style:normal;font-variant:normal;font-weight:normal;font-stretch:normal;font-size:medium;line-height:1;font-family:Gotham;-inkscape-font-specification:Gotham;letter-spacing:-0.00264583px;word-spacing:-0.00264583px;fill:#ffffff;fill-opacity:1;stroke:none;stroke-width:0.65957987"
         id="path970"
         inkscape:connector-curvature="0" />
      <path
         d="m -144.89487,266.51497 h 6.20005 v -3.82556 h -6.20005 z m 0.10553,15.43417 h 5.98899 v -14.40523 h -5.98899 z"
         style="font-style:normal;font-variant:normal;font-weight:normal;font-stretch:normal;font-size:medium;line-height:1;font-family:Gotham;-inkscape-font-specification:Gotham;letter-spacing:-0.00264583px;word-spacing:-0.00264583px;fill:#ffffff;fill-opacity:1;stroke:none;stroke-width:0.65957987"
         id="path972"
         inkscape:connector-curvature="0" />
      <path
         d="m -136.96071,281.94914 h 5.98899 v -7.57198 c 0,-1.24001 0.81788,-1.95235 1.71491,-1.95235 0.89703,0 1.63576,0.71234 1.63576,1.95235 v 7.57198 h 5.98898 v -9.49795 c 0,-3.24513 -1.89959,-5.25026 -4.93366,-5.25026 -2.0315,0 -3.48258,1.16086 -4.40599,2.34811 v -2.00513 h -5.98899 z"
         style="font-style:normal;font-variant:normal;font-weight:normal;font-stretch:normal;font-size:medium;line-height:1;font-family:Gotham;-inkscape-font-specification:Gotham;letter-spacing:-0.00264583px;word-spacing:-0.00264583px;fill:#ffffff;fill-opacity:1;stroke:none;stroke-width:0.65957987"
         id="path974"
         inkscape:connector-curvature="0" />
      <path
         d="m -112.28104,286.22322 c 3.21875,0 5.19749,-0.81788 6.49026,-2.11066 1.31916,-1.31916 1.87321,-3.1396 1.87321,-5.8043 v -10.76435 h -5.98899 v 1.53023 c -1.05532,-1.08171 -2.29533,-1.87321 -4.40599,-1.87321 -3.32428,0 -6.06813,2.66471 -6.06813,6.70133 v 0.0528 c 0,3.98386 2.69108,6.62218 6.41111,6.62218 2.00512,0 3.35067,-1.05532 4.16855,-1.97874 v 0.42213 c 0,2.00513 -1.18725,3.16599 -3.42982,3.16599 -1.97874,0 -3.58811,-0.52767 -5.19749,-1.37193 l -1.84682,3.6145 c 2.32172,1.16086 4.80174,1.79406 7.99411,1.79406 z m 0.10553,-10.02562 c -1.45108,0 -2.40087,-0.97618 -2.40087,-2.21619 v -0.0528 c 0,-1.2664 0.92341,-2.29534 2.40087,-2.29534 1.45108,0 2.40087,1.00256 2.40087,2.24257 v 0.0528 c 0,1.26639 -0.92341,2.26895 -2.40087,2.26895 z"
         style="font-style:normal;font-variant:normal;font-weight:normal;font-stretch:normal;font-size:medium;line-height:1;font-family:Gotham;-inkscape-font-specification:Gotham;letter-spacing:-0.00264583px;word-spacing:-0.00264583px;fill:#ffffff;fill-opacity:1;stroke:none;stroke-width:0.65957987"
         id="path976"
         inkscape:connector-curvature="0" />
      <path
         d="m -90.831298,282.03252 c 1.79405,0 3.1396,-0.71235 4.14216,-1.79406 v 1.45108 h 5.98898 v -8.20518 c 0,-2.08427 -0.42213,-3.48258 -1.50384,-4.56429 -1.26639,-1.26639 -3.16598,-1.87321 -6.09452,-1.87321 -2.5064,0 -4.40599,0.42213 -6.06813,1.05533 l 1.05533,3.98386 c 1.26639,-0.50128 2.5064,-0.81788 3.98386,-0.81788 1.84682,0 2.6647,0.76512 2.6647,2.08428 v 0.23745 c -0.63319,-0.26384 -2.1898,-0.52767 -3.40343,-0.52767 -3.35067,0 -5.4877,1.60938 -5.4877,4.48514 v 0.0528 c 0,2.84939 1.95235,4.43238 4.72259,4.43238 z m 2.37448,-3.4562 c -0.76511,0 -1.37192,-0.55405 -1.37192,-1.39831 v -0.0528 c 0,-0.89703 0.65958,-1.60937 1.84682,-1.60937 0.50128,0 1.02895,0.10553 1.37193,0.23745 v 0.60681 c 0,1.37193 -0.7915,2.21619 -1.84683,2.21619 z"
         style="font-style:normal;font-variant:normal;font-weight:normal;font-stretch:normal;font-size:medium;line-height:1;font-family:Gotham;-inkscape-font-specification:Gotham;letter-spacing:-0.00264583px;word-spacing:-0.00264583px;fill:#ffffff;fill-opacity:1;stroke:none;stroke-width:0.65957987"
         id="path978"
         inkscape:connector-curvature="0" />
      <path
         d="m -79.028288,281.68954 h 5.98898 v -7.57198 c 0,-1.24001 0.81788,-1.95236 1.71491,-1.95236 0.89703,0 1.63576,0.71235 1.63576,1.95236 v 7.57198 h 5.98898 v -9.49795 c 0,-3.24514 -1.89959,-5.25026 -4.93365,-5.25026 -2.03151,0 -3.48259,1.16086 -4.406,2.3481 v -2.00512 h -5.98898 z"
         style="font-style:normal;font-variant:normal;font-weight:normal;font-stretch:normal;font-size:medium;line-height:1;font-family:Gotham;-inkscape-font-specification:Gotham;letter-spacing:-0.00264583px;word-spacing:-0.00264583px;fill:#ffffff;fill-opacity:1;stroke:none;stroke-width:0.65957987"
         id="path980"
         inkscape:connector-curvature="0" />
      <path
         d="m -57.857598,282.03252 c 1.79406,0 3.1396,-0.71235 4.14216,-1.79406 v 1.45108 h 5.98899 v -8.20518 c 0,-2.08427 -0.42213,-3.48258 -1.50384,-4.56429 -1.2664,-1.26639 -3.16599,-1.87321 -6.09452,-1.87321 -2.5064,0 -4.40599,0.42213 -6.06814,1.05533 l 1.05533,3.98386 c 1.2664,-0.50128 2.50641,-0.81788 3.98386,-0.81788 1.84683,0 2.66471,0.76512 2.66471,2.08428 v 0.23745 c -0.6332,-0.26384 -2.18981,-0.52767 -3.40343,-0.52767 -3.35067,0 -5.48771,1.60938 -5.48771,4.48514 v 0.0528 c 0,2.84939 1.95236,4.43238 4.72259,4.43238 z m 2.37449,-3.4562 c -0.76511,0 -1.37193,-0.55405 -1.37193,-1.39831 v -0.0528 c 0,-0.89703 0.65958,-1.60937 1.84683,-1.60937 0.50128,0 1.02894,0.10553 1.37192,0.23745 v 0.60681 c 0,1.37193 -0.79149,2.21619 -1.84682,2.21619 z"
         style="font-style:normal;font-variant:normal;font-weight:normal;font-stretch:normal;font-size:medium;line-height:1;font-family:Gotham;-inkscape-font-specification:Gotham;letter-spacing:-0.00264583px;word-spacing:-0.00264583px;fill:#ffffff;fill-opacity:1;stroke:none;stroke-width:0.65957987"
         id="path982"
         inkscape:connector-curvature="0" />
      <path
         d="m -46.001818,281.68954 h 5.98898 V 262.4298 h -5.98898 z"
         style="font-style:normal;font-variant:normal;font-weight:normal;font-stretch:normal;font-size:medium;line-height:1;font-family:Gotham;-inkscape-font-specification:Gotham;letter-spacing:-0.00264583px;word-spacing:-0.00264583px;fill:#ffffff;fill-opacity:1;stroke:none;stroke-width:0.65957987"
         id="path984"
         inkscape:connector-curvature="0" />
      <path
         d="m -30.284618,274.88267 -2.506403,-7.59836 h -6.200047 l 5.646,13.85118 c -0.316599,0.1583 -0.633197,0.21106 -0.97618,0.21106 -0.55405,0 -1.55661,-0.34298 -2.63832,-0.94979 l -1.74129,4.0894 c 1.60938,0.89702 3.48258,1.50384 5.566855,1.50384 3.324283,0 4.854508,-1.53023 6.252818,-5.30303 l 4.986424,-13.40266 h -6.094519 z"
         style="font-style:normal;font-variant:normal;font-weight:normal;font-stretch:normal;font-size:medium;line-height:1;font-family:Gotham;-inkscape-font-specification:Gotham;letter-spacing:-0.00264583px;word-spacing:-0.00264583px;fill:#ffffff;fill-opacity:1;stroke:none;stroke-width:0.65957987"
         id="path986"
         inkscape:connector-curvature="0" />
      <path
         d="m -21.620794,281.68954 h 14.1413929 v -4.69621 h -5.8834519 l 5.8834519,-5.9626 v -3.74642 H -21.383345 v 4.69621 h 5.619621 l -5.85707,5.9626 z"
         style="font-style:normal;font-variant:normal;font-weight:normal;font-stretch:normal;font-size:medium;line-height:1;font-family:Gotham;-inkscape-font-specification:Gotham;letter-spacing:-0.00264583px;word-spacing:-0.00264583px;fill:#ffffff;fill-opacity:1;stroke:none;stroke-width:0.65957987"
         id="path988"
         inkscape:connector-curvature="0" />
      <path
         d="m 0.77259381,282.03252 c 3.11320999,0 5.14471999,-1.29278 6.56940999,-3.1396 l -3.21875,-2.55917 c -0.94979,0.97618 -1.84682,1.47746 -2.92853,1.47746 -1.29277999,0 -2.29534,-0.65958 -2.71747,-1.92598 h 9.2605 c 0.0264,-0.3166 0.0264,-0.68596 0.0264,-1.00256 0,-4.37961 -2.37449,-7.94134 -7.49282999,-7.94134 -4.32684001,0 -7.41367591,3.27152 -7.41367591,7.57198 v 0.0528 c 0,4.48515 3.1923659,7.46645 7.91495591,7.46645 z m -2.37449001,-8.78561 c 0.18468,-1.31916 0.89703001,-2.16342 1.89959001,-2.16342 1.05532999,0 1.87320999,0.7915 2.00511999,2.16342 z"
         style="font-style:normal;font-variant:normal;font-weight:normal;font-stretch:normal;font-size:medium;line-height:1;font-family:Gotham;-inkscape-font-specification:Gotham;letter-spacing:-0.00264583px;word-spacing:-0.00264583px;fill:#ffffff;fill-opacity:1;stroke:none;stroke-width:0.65957987"
         id="path990"
         inkscape:connector-curvature="0" />
      <path
         d="m 9.0715838,281.68954 h 5.9889902 v -3.66727 c 0,-3.19236 1.34554,-4.59067 3.87833,-4.59067 h 0.6332 v -6.35835 c -2.37449,-0.10554 -3.69365,1.16086 -4.51153,3.11321 v -2.90215 H 9.0715838 Z"
         style="font-style:normal;font-variant:normal;font-weight:normal;font-stretch:normal;font-size:medium;line-height:1;font-family:Gotham;-inkscape-font-specification:Gotham;letter-spacing:-0.00264583px;word-spacing:-0.00264583px;fill:#ffffff;fill-opacity:1;stroke:none;stroke-width:0.65957987"
         id="path992"
         inkscape:connector-curvature="0" />
      <path
         style="fill:#ffcc00;stroke-width:0.07478618"
         inkscape:connector-curvature="0"
         d="m -211.58469,259.85063 -2.39323,10e-4 c -0.44042,2.3e-4 -0.79729,0.35748 -0.79707,0.79812 l 6.2e-4,1.59541 c 2.2e-4,0.44056 0.35748,0.79751 0.79789,0.79729 l 2.39323,-10e-4 v 2.39159 c 0,0.44058 0.35712,0.79775 0.79744,0.79775 h 1.59497 c 0.44043,0 0.79744,-0.35717 0.79744,-0.79775 v -2.39159 c 0,-1.76285 -1.42908,-3.19172 -3.19142,-3.19082 z"
         id="path821" />
      <path
         style="fill:#ffcc00;stroke-width:0.07478618"
         inkscape:connector-curvature="0"
         d="m -239.99886,266.23057 h 1.59542 c 0.44056,0 0.79774,-0.35719 0.79774,-0.79769 v -2.3915 h 2.39316 c 0.44056,0 0.79775,-0.35718 0.79775,-0.79767 v -1.59542 c -8e-5,-0.44056 -0.35726,-0.79766 -0.79775,-0.79766 h -2.39316 c -1.76225,0 -3.1909,1.42849 -3.1909,3.19075 v 2.3915 c 0,0.4405 0.35718,0.79769 0.79774,0.79769 z"
         id="path823" />
      <path
         style="fill:#ffcc00;stroke-width:0.07478618"
         inkscape:connector-curvature="0"
         d="m -209.1907,282.18522 h -1.59497 c -0.44042,0 -0.79745,0.3571 -0.79745,0.79775 v 2.39472 h -2.39241 c -0.44042,0 -0.79745,0.3571 -0.79745,0.79774 v 1.59542 c 0,0.44056 0.35711,0.79774 0.79745,0.79774 h 2.39241 c 1.76167,-7e-5 3.18986,-1.42872 3.18986,-3.19098 v -2.39471 c 0,-0.44058 -0.3571,-0.79768 -0.79744,-0.79768 z"
         id="path825" />
      <path
         style="fill:#ffcc00;stroke-width:0.07478618"
         inkscape:connector-curvature="0"
         d="m -235.21336,285.37777 -2.39242,-10e-4 v -2.39308 c 0,-0.44064 -0.35717,-0.79767 -0.79774,-0.79767 h -1.59534 c -0.44056,6e-5 -0.79774,0.35709 -0.79774,0.79773 v 2.39227 c 0,1.76195 1.42805,3.19067 3.19008,3.1915 l 2.3916,10e-4 c 0.44054,2.3e-4 0.79789,-0.35679 0.79811,-0.79729 l 6.2e-4,-1.59534 c 2.1e-4,-0.44064 -0.35674,-0.79789 -0.79731,-0.79812 z"
         id="path827" />
      <path
         inkscape:connector-curvature="0"
         id="path947"
         d="m -232.65744,266.23006 a 9.200379,9.200379 0 0 0 0.0137,12.97683 9.200379,9.200379 0 0 0 11.8237,1.0185 l 3.37183,3.37183 c 0.61404,0.61405 1.6028,0.61405 2.21684,0 0.61403,-0.61404 0.61394,-1.60269 -1e-4,-2.21674 l -3.37846,-3.37845 a 9.200379,9.200379 0 0 0 -0.9337,-11.71655 l -0.13715,-0.13771 a 9.200379,9.200379 0 0 0 -12.97665,0.0823 z m 2.9504,2.92877 a 5.0430707,5.0430707 0 0 1 7.11293,-0.0451 l 0.0753,0.0755 a 5.0430707,5.0430707 0 0 1 -0.0677,7.11273 5.0430707,5.0430707 0 0 1 -7.11291,-0.0301 5.0430707,5.0430707 0 0 1 -0.008,-7.11312 z"
         style="opacity:1;fill:#ff0000;fill-opacity:1;stroke:none;stroke-width:1.27494824;stroke-linecap:butt;stroke-linejoin:round;stroke-miterlimit:4;stroke-dasharray:none;stroke-opacity:1;paint-order:markers stroke fill" />
    </g>
  </g>
</svg>
